<?xml version="1.0" standalone="no"?>
<!DOCTYPE svg PUBLIC "-//W3C//DTD SVG 20010904//EN"
 "http://www.w3.org/TR/2001/REC-SVG-20010904/DTD/svg10.dtd">
<svg version="1.0" xmlns="http://www.w3.org/2000/svg"
 width="1000.000000pt" height="1000.000000pt" viewBox="0 0 1000.000000 1000.000000"
 preserveAspectRatio="xMidYMid meet">

<g transform="translate(0.000000,1000.000000) scale(0.100000,-0.100000)"
fill="#000000" stroke="none">
<path d="M2915 5563 c-55 -6 -110 -12 -122 -12 -28 -1 -31 -21 -3 -21 34 0 71
-23 88 -54 15 -28 17 -87 20 -558 2 -406 5 -528 15 -528 7 0 25 16 40 35 33
41 55 44 129 13 70 -28 191 -30 266 -5 82 29 145 85 184 164 32 65 33 73 33
183 0 105 -2 119 -27 165 -32 62 -104 130 -166 158 -35 15 -68 21 -127 21 -86
0 -129 -15 -194 -69 l-31 -27 -2 274 -3 273 -100 -12z m392 -489 c169 -137
159 -524 -16 -623 -83 -46 -188 -19 -228 60 -33 64 -49 247 -34 376 13 111 38
165 91 201 51 34 135 28 187 -14z"/>
<path d="M6135 5563 c-55 -6 -110 -12 -122 -12 -28 -1 -31 -21 -3 -21 34 0 71
-23 88 -54 15 -28 17 -87 20 -558 2 -406 5 -528 15 -528 7 0 25 16 40 35 33
41 55 44 129 13 70 -28 191 -30 266 -5 82 29 145 85 184 164 32 65 33 73 33
183 0 105 -2 119 -27 165 -32 62 -104 130 -166 158 -35 15 -68 21 -127 21 -86
0 -129 -15 -194 -69 l-31 -27 -2 274 -3 273 -100 -12z m392 -489 c169 -137
159 -524 -16 -623 -83 -46 -188 -19 -228 60 -33 64 -49 247 -34 376 13 111 38
165 91 201 51 34 135 28 187 -14z"/>
<path d="M7095 5575 c-5 -2 -56 -9 -112 -15 -57 -7 -103 -16 -103 -21 0 -5 11
-9 24 -9 14 0 37 -10 51 -22 41 -36 47 -119 43 -578 -3 -322 -7 -411 -18 -433
-14 -29 -56 -57 -85 -57 -8 0 -15 -4 -15 -10 0 -6 65 -10 175 -10 164 0 217 9
145 25 -16 4 -41 20 -55 37 l-25 30 0 534 c0 294 -3 534 -7 533 -5 0 -12 -2
-18 -4z"/>
<path d="M1930 5350 c-25 -11 -58 -19 -75 -20 -95 -2 -243 -155 -270 -278 -7
-35 -25 -34 -25 1 0 54 -74 172 -125 200 -17 9 -16 5 6 -24 54 -71 99 -193 99
-268 l0 -31 -52 41 c-54 43 -147 94 -155 86 -2 -3 0 -15 7 -27 10 -19 6 -23
-75 -61 -53 -25 -112 -44 -152 -50 -95 -13 -116 -20 -105 -31 17 -17 117 -10
173 12 30 12 84 38 121 57 82 43 97 41 173 -28 81 -75 81 -74 46 -183 -108
-336 -101 -593 18 -673 33 -23 35 -23 65 -5 44 25 91 110 106 189 23 118 -7
358 -66 535 -14 44 -14 50 4 91 32 72 134 157 188 157 11 0 14 5 10 16 -3 9
-6 18 -6 20 0 11 -36 2 -86 -22 -30 -14 -78 -49 -106 -77 l-51 -52 8 59 c10
88 32 150 68 198 26 35 55 54 164 108 151 74 190 99 93 60z m-312 -690 c33
-109 45 -200 39 -301 -5 -102 -16 -146 -47 -197 -26 -42 -38 -34 -77 47 -26
52 -28 65 -28 176 0 92 5 138 22 200 28 103 52 160 63 149 4 -5 17 -38 28 -74z"/>
<path d="M3940 5115 c-65 -18 -148 -73 -185 -121 -54 -71 -70 -121 -70 -229 0
-88 3 -107 27 -157 35 -75 103 -141 176 -169 82 -32 227 -32 297 -1 74 34 105
67 135 147 16 43 -7 27 -30 -21 -32 -66 -85 -97 -170 -102 -154 -9 -260 94
-290 282 -6 38 -8 82 -5 98 l7 28 239 0 c237 0 239 0 239 21 0 44 -25 101 -61
143 -69 78 -197 112 -309 81z m167 -34 c41 -30 65 -76 77 -148 l6 -33 -180 0
-179 0 6 33 c12 66 61 134 118 165 40 22 109 14 152 -17z"/>
<path d="M4615 5120 c-125 -27 -178 -87 -125 -140 39 -39 73 -24 110 50 33 66
67 86 131 77 76 -10 109 -64 109 -178 0 -67 -2 -73 -33 -104 -24 -24 -55 -40
-108 -55 -192 -56 -216 -70 -244 -145 -29 -74 2 -152 75 -190 38 -19 128 -28
165 -16 l30 9 -38 1 c-71 2 -116 80 -96 169 15 68 38 93 155 166 l107 66 -6
-122 c-8 -148 -18 -187 -60 -236 l-32 -37 41 33 c23 17 44 32 47 32 2 0 22
-18 44 -39 29 -29 50 -41 84 -46 60 -9 124 16 145 58 l16 30 -27 -21 c-39 -31
-88 -29 -114 4 -20 25 -21 39 -21 253 0 125 -5 243 -10 263 -13 44 -55 79
-123 102 -59 20 -169 28 -222 16z"/>
<path d="M7570 5115 c-65 -18 -148 -73 -185 -121 -54 -71 -70 -121 -70 -229 0
-88 3 -107 27 -157 35 -75 103 -141 176 -169 82 -32 227 -32 297 -1 74 34 105
67 135 147 16 43 -7 27 -30 -21 -32 -66 -85 -97 -170 -102 -154 -9 -260 94
-290 282 -6 38 -8 82 -5 98 l7 28 239 0 c237 0 239 0 239 21 0 44 -25 101 -61
143 -69 78 -197 112 -309 81z m167 -34 c41 -30 65 -76 77 -148 l6 -33 -180 0
-179 0 6 33 c12 66 61 134 118 165 40 22 109 14 152 -17z"/>
<path d="M8238 5116 c-21 -7 -49 -21 -63 -30 -34 -22 -65 -87 -65 -136 0 -88
45 -140 192 -223 91 -51 121 -77 137 -120 23 -61 2 -130 -48 -160 -35 -21
-112 -22 -149 -3 -43 23 -89 77 -116 136 l-25 55 0 -106 -1 -106 128 -7 c127
-6 162 -2 218 27 91 47 128 159 84 255 -28 61 -62 89 -175 142 -69 32 -112 60
-134 85 -30 34 -33 43 -28 84 9 85 97 128 176 87 39 -21 91 -82 98 -117 3 -16
10 -32 16 -36 6 -4 7 25 2 83 -4 49 -8 90 -9 90 0 1 -46 4 -101 8 -73 4 -110
2 -137 -8z"/>
<path d="M8838 5116 c-21 -7 -49 -21 -63 -30 -34 -22 -65 -87 -65 -136 0 -88
45 -140 192 -223 91 -51 121 -77 137 -120 23 -61 2 -130 -48 -160 -35 -21
-112 -22 -149 -3 -43 23 -89 77 -116 136 l-25 55 0 -106 -1 -106 128 -7 c127
-6 162 -2 218 27 91 47 128 159 84 255 -28 61 -62 89 -175 142 -69 32 -112 60
-134 85 -30 34 -33 43 -28 84 9 85 97 128 176 87 39 -21 91 -82 98 -117 3 -16
10 -32 16 -36 6 -4 7 25 2 83 -4 49 -8 90 -9 90 0 1 -46 4 -101 8 -73 4 -110
2 -137 -8z"/>
<path d="M5130 5112 c0 -5 18 -14 40 -21 71 -21 74 -31 80 -315 5 -240 6 -252
28 -283 37 -52 103 -78 197 -77 86 2 142 18 202 59 l38 25 5 -42 c5 -39 7 -43
33 -42 15 0 65 1 112 2 49 1 85 6 85 12 0 6 -9 10 -20 10 -11 0 -34 13 -52 29
l-33 29 -3 311 -3 311 -120 0 c-65 0 -119 -4 -119 -8 0 -5 18 -14 40 -21 70
-21 74 -33 74 -280 0 -210 -1 -218 -24 -266 -32 -65 -83 -95 -161 -95 -42 0
-65 6 -90 23 -62 41 -64 52 -67 365 l-3 282 -120 0 c-65 0 -119 -4 -119 -8z"/>
<path d="M5078 4163 c7 -3 12 -26 12 -63 0 -37 -5 -60 -12 -63 -7 -3 3 -6 22
-6 28 0 32 2 18 10 -13 7 -18 23 -18 59 0 36 5 52 18 59 14 8 10 10 -18 10
-19 0 -29 -3 -22 -6z"/>
<path d="M5158 4163 c7 -3 16 -2 19 1 4 3 -2 6 -13 5 -11 0 -14 -3 -6 -6z"/>
<path d="M5433 4159 c12 -7 17 -23 17 -59 0 -36 -5 -52 -17 -59 -15 -8 -11
-10 17 -10 19 0 29 3 23 6 -8 3 -13 26 -13 63 0 37 5 60 13 63 6 3 -4 6 -23 6
-28 0 -32 -2 -17 -10z"/>
<path d="M5737 4143 c15 -16 43 -46 60 -68 23 -28 32 -35 33 -22 0 9 -4 17 -9
17 -5 0 -26 23 -47 50 -21 28 -44 50 -52 50 -9 0 -3 -11 15 -27z"/>
<path d="M5815 4160 c3 -5 12 -7 20 -3 21 7 19 13 -6 13 -11 0 -18 -4 -14 -10z"/>
<path d="M6138 4163 c6 -2 18 -2 25 0 6 3 1 5 -13 5 -14 0 -19 -2 -12 -5z"/>
<path d="M6778 4163 c7 -3 12 -26 12 -63 0 -37 -5 -60 -12 -63 -7 -3 3 -6 22
-6 28 0 32 2 18 10 -26 15 -24 59 3 59 13 0 25 -11 35 -35 8 -19 18 -35 23
-35 5 0 0 17 -10 37 -17 33 -17 38 -3 54 23 26 -6 49 -59 48 -23 0 -36 -3 -29
-6z m77 -28 c0 -14 -8 -21 -27 -23 -24 -3 -28 0 -28 23 0 23 4 26 28 23 19 -2
27 -9 27 -23z"/>
<path d="M7123 4159 c12 -7 17 -23 17 -59 0 -36 -5 -52 -17 -59 -14 -8 -3 -10
45 -11 34 0 62 3 62 8 0 4 -17 7 -37 7 -34 0 -38 3 -41 29 -3 25 -1 28 17 23
12 -3 21 -1 21 4 0 5 -9 9 -20 9 -15 0 -20 7 -20 24 0 21 5 25 38 29 25 2 18
4 -23 5 -45 1 -56 -1 -42 -9z"/>
<path d="M6097 4142 c-19 -21 -22 -59 -7 -82 6 -10 8 -3 3 23 -4 28 -1 42 12
57 10 11 16 20 13 20 -3 0 -12 -8 -21 -18z"/>
<path d="M6486 4123 c13 -27 13 -28 -14 -34 l-27 -7 28 -1 c31 -1 48 -28 26
-42 -10 -6 -4 -9 20 -9 31 0 33 1 19 18 -8 9 -23 36 -33 60 -10 23 -22 42 -26
42 -4 0 -1 -12 7 -27z"/>
<path d="M4766 4126 c2 -6 18 -19 35 -29 23 -13 30 -23 26 -37 -3 -11 -1 -18
4 -14 20 12 7 42 -30 66 -22 14 -38 21 -35 14z"/>
<path d="M5144 4081 c21 -26 24 -36 14 -42 -8 -6 -1 -9 21 -9 19 0 32 1 30 3
-2 1 -24 20 -49 42 -42 38 -43 39 -16 6z"/>
<path d="M5715 4040 c-4 -6 3 -10 14 -10 25 0 27 6 6 13 -8 4 -17 2 -20 -3z"/>
<path d="M4788 4033 c7 -3 16 -2 19 1 4 3 -2 6 -13 5 -11 0 -14 -3 -6 -6z"/>
<path d="M6138 4033 c7 -3 16 -2 19 1 4 3 -2 6 -13 5 -11 0 -14 -3 -6 -6z"/>
<path d="M6418 4033 c6 -2 18 -2 25 0 6 3 1 5 -13 5 -14 0 -19 -2 -12 -5z"/>
</g>
</svg>
